<svg width="12" height="18" viewBox="0 0 12 18" fill="none" xmlns="http://www.w3.org/2000/svg">
<path d="M7.4271 17.5423C7.4271 17.7951 7.22219 18 6.96938 18H4.49513C4.24232 18 4.03741 17.7951 4.03741 17.5423C4.03741 17.2895 4.24232 17.0846 4.49513 17.0846H6.96938C7.22219 17.0846 7.4271 17.2895 7.4271 17.5423ZM11.4648 13.1701V14.4888C11.4648 15.4682 10.6678 16.2651 9.68825 16.2651H1.77631C0.796834 16.2651 -6.10352e-05 15.4683 -6.10352e-05 14.4888V13.1701C-6.10352e-05 12.9173 0.204846 12.7124 0.457662 12.7124H0.579416C0.578348 12.6993 0.577738 12.6859 0.577738 12.6725V11.4459C0.577077 11.4187 0.578907 11.3917 0.583078 11.3652C0.593453 11.2976 0.618628 11.2349 0.655195 11.1805C0.69105 11.1268 0.738551 11.0803 0.795919 11.0453C0.819161 11.031 0.843726 11.0187 0.86946 11.0087C1.05072 10.9333 1.23091 10.8553 1.40881 10.7755V5.1829C1.40881 4.27371 1.98732 3.47503 2.81244 3.16775C2.81148 3.14272 2.81102 3.1177 2.81102 3.09248V1.962C2.81097 0.88015 3.69112 0 4.77292 0H6.69154C7.7734 0 8.65349 0.88015 8.65349 1.962V3.09253C8.65349 3.1177 8.65298 3.14278 8.65207 3.1677C8.97731 3.28864 9.26893 3.48709 9.5015 3.74499C9.50964 3.72973 9.51768 3.71452 9.52581 3.69927C9.6437 3.47569 9.92052 3.39 10.1442 3.50804C10.3678 3.62598 10.4534 3.9029 10.3355 4.12647C9.47877 5.75017 8.23468 7.25465 6.63773 8.59807C5.36308 9.67031 3.91622 10.5965 2.32431 11.3603V12.7124H9.14031V7.20354C9.14031 6.95072 9.34521 6.74582 9.59803 6.74582C9.85085 6.74582 10.0558 6.95072 10.0558 7.20354V12.7124H11.0071C11.2598 12.7124 11.4648 12.9173 11.4648 13.1701ZM3.72641 3.09253C3.72641 3.18621 3.73877 3.27709 3.76196 3.3636C3.76568 3.37479 3.76898 3.38618 3.77178 3.39778C3.90269 3.82641 4.30192 4.13909 4.77287 4.13909H6.69149C7.16239 4.13909 7.56162 3.82651 7.69263 3.39793C7.69553 3.38618 7.69884 3.37464 7.70255 3.36335C7.72569 3.27694 7.73805 3.18616 7.73805 3.09253V1.962C7.73805 1.38492 7.26858 0.915446 6.69149 0.915446H4.77287C4.19583 0.915446 3.72641 1.38492 3.72641 1.962V3.09253ZM2.32426 10.338C5.18167 8.8875 7.52882 6.87205 8.99491 4.60434C8.86206 4.35661 8.65161 4.16401 8.40159 4.05354C8.06481 4.65052 7.42446 5.05448 6.69149 5.05448H4.77287C4.03995 5.05448 3.3996 4.65046 3.06282 4.05349C2.62523 4.24675 2.32426 4.68606 2.32426 5.1829V10.338ZM10.5493 13.6278H9.6049C9.60256 13.6278 9.60027 13.6279 9.59798 13.6279H1.86653C1.86424 13.6279 1.86196 13.6279 1.85962 13.6278H0.915385V14.4888C0.915385 14.9635 1.3016 15.3497 1.77631 15.3497H9.68825C10.1631 15.3497 10.5493 14.9635 10.5493 14.4888V13.6278Z" fill="#28405F"/>
</svg>
