<svg width="144" height="48" viewBox="0 0 144 48" fill="none" xmlns="http://www.w3.org/2000/svg">
<rect x="0.5" y="0.5" width="143" height="47" rx="4.5" stroke="white" stroke-opacity="0.5"/>
<path d="M55.3147 15.414C55.3147 16.1195 55.1487 16.7369 54.7337 17.1779C54.2357 17.7071 53.6548 17.9717 52.9078 17.9717C52.1609 17.9717 51.5799 17.7071 51.0819 17.1779C50.5839 16.6487 50.335 16.0313 50.335 15.2376C50.335 14.4438 50.5839 13.8264 51.0819 13.2972C51.5799 12.768 52.1609 12.5034 52.9078 12.5034C53.2398 12.5034 53.5718 12.5916 53.9038 12.768C54.2357 12.9444 54.4847 13.1208 54.6507 13.3854L54.2357 13.8264C53.9038 13.3854 53.4888 13.209 52.9078 13.209C52.4098 13.209 51.9119 13.3854 51.5799 13.8264C51.1649 14.1792 50.9989 14.7084 50.9989 15.3258C50.9989 15.9431 51.1649 16.4723 51.5799 16.8251C51.9949 17.1779 52.4098 17.4425 52.9078 17.4425C53.4888 17.4425 53.9038 17.2661 54.3187 16.8251C54.5677 16.5605 54.7337 16.2077 54.7337 15.7668H52.9078V15.0612H55.3147V15.414ZM59.1325 13.209H56.8916V14.8848H58.9665V15.5022H56.8916V17.1779H59.1325V17.8835H56.2276V12.5916H59.1325V13.209ZM61.8713 17.8835H61.2073V13.209H59.7964V12.5916H63.2822V13.209H61.8713V17.8835ZM65.6891 17.8835V12.5916H66.353V17.8835H65.6891ZM69.1749 17.8835H68.5109V13.209H67.1V12.5916H70.5028V13.209H69.0919V17.8835H69.1749ZM77.0594 17.1779C76.5614 17.7071 75.9805 17.9717 75.2335 17.9717C74.4866 17.9717 73.9056 17.7071 73.4076 17.1779C72.9097 16.6487 72.6607 16.0313 72.6607 15.2376C72.6607 14.4438 72.9097 13.8264 73.4076 13.2972C73.9056 12.768 74.4866 12.5034 75.2335 12.5034C75.9805 12.5034 76.5614 12.768 77.0594 13.2972C77.5574 13.8264 77.8064 14.4438 77.8064 15.2376C77.8064 16.0313 77.5574 16.6487 77.0594 17.1779ZM73.9056 16.7369C74.2376 17.0897 74.7356 17.3543 75.2335 17.3543C75.7315 17.3543 76.2295 17.1779 76.5614 16.7369C76.8934 16.3841 77.1424 15.8549 77.1424 15.2376C77.1424 14.6202 76.9764 14.091 76.5614 13.7382C76.2295 13.3854 75.7315 13.1208 75.2335 13.1208C74.7356 13.1208 74.2376 13.2972 73.9056 13.7382C73.5736 14.091 73.3246 14.6202 73.3246 15.2376C73.3246 15.8549 73.4906 16.3841 73.9056 16.7369ZM78.7193 17.8835V12.5916H79.4663L81.8731 16.7369V12.5916H82.5371V17.8835H81.8731L79.3003 13.5618V17.8835H78.7193Z" fill="white" stroke="white" stroke-width="0.2" stroke-miterlimit="10"/>
<path d="M72.415 25.5036C70.3983 25.5036 68.8018 26.992 68.8018 29.0592C68.8018 31.0438 70.3983 32.6149 72.415 32.6149C74.4317 32.6149 76.0282 31.1265 76.0282 29.0592C76.0282 26.9093 74.4317 25.5036 72.415 25.5036ZM72.415 31.1265C71.3226 31.1265 70.3983 30.2169 70.3983 28.9765C70.3983 27.7362 71.3226 26.8266 72.415 26.8266C73.5074 26.8266 74.4317 27.6535 74.4317 28.9765C74.4317 30.2169 73.5074 31.1265 72.415 31.1265ZM64.6004 25.5036C62.5837 25.5036 60.9872 26.992 60.9872 29.0592C60.9872 31.0438 62.5837 32.6149 64.6004 32.6149C66.6171 32.6149 68.2136 31.1265 68.2136 29.0592C68.2136 26.9093 66.6171 25.5036 64.6004 25.5036ZM64.6004 31.1265C63.508 31.1265 62.5837 30.2169 62.5837 28.9765C62.5837 27.7362 63.508 26.8266 64.6004 26.8266C65.6928 26.8266 66.6171 27.6535 66.6171 28.9765C66.6171 30.2169 65.6928 31.1265 64.6004 31.1265ZM55.2733 26.5786V28.067H58.8865C58.8025 28.8939 58.4663 29.5554 58.0462 29.9688C57.542 30.465 56.7017 31.0438 55.2733 31.0438C53.0045 31.0438 51.324 29.3073 51.324 27.0747C51.324 24.8421 53.0885 23.1056 55.2733 23.1056C56.4497 23.1056 57.374 23.6017 58.0462 24.1806L59.1386 23.1056C58.2143 22.2787 57.0379 21.6172 55.3573 21.6172C52.3323 21.6172 49.7274 24.0979 49.7274 27.0747C49.7274 30.0515 52.3323 32.5322 55.3573 32.5322C57.0379 32.5322 58.2143 32.0361 59.2226 30.9611C60.2309 29.9688 60.567 28.5631 60.567 27.4881C60.567 27.1574 60.567 26.8266 60.483 26.5786H55.2733ZM93.422 27.7362C93.0859 26.9093 92.2456 25.5036 90.397 25.5036C88.5484 25.5036 87.0359 26.9093 87.0359 29.0592C87.0359 31.0438 88.5484 32.6149 90.5651 32.6149C92.1616 32.6149 93.1699 31.6226 93.506 31.0438L92.3297 30.2169C91.9095 30.7957 91.4053 31.2092 90.5651 31.2092C89.7248 31.2092 89.2206 30.8784 88.8005 30.1342L93.5901 28.1497L93.422 27.7362ZM88.5484 28.8939C88.5484 27.5708 89.6408 26.8266 90.397 26.8266C90.9852 26.8266 91.5734 27.1574 91.7415 27.5708L88.5484 28.8939ZM84.5991 32.2841H86.1956V21.9479H84.5991V32.2841ZM82.0782 26.2478C81.6581 25.8343 80.9859 25.4209 80.1456 25.4209C78.381 25.4209 76.7004 26.992 76.7004 28.9765C76.7004 30.9611 78.297 32.4495 80.1456 32.4495C80.9859 32.4495 81.6581 32.0361 81.9942 31.6226H82.0782V32.1187C82.0782 33.4418 81.322 34.186 80.1456 34.186C79.2213 34.186 78.549 33.5245 78.381 32.9456L77.0365 33.5245C77.4567 34.434 78.465 35.5917 80.2296 35.5917C82.0782 35.5917 83.5907 34.5167 83.5907 31.9534V25.669H82.0782V26.2478ZM80.2296 31.1265C79.1372 31.1265 78.2129 30.2169 78.2129 28.9765C78.2129 27.7362 79.1372 26.8266 80.2296 26.8266C81.322 26.8266 82.1623 27.7362 82.1623 28.9765C82.1623 30.2169 81.322 31.1265 80.2296 31.1265ZM100.732 21.9479H96.9512V32.2841H98.5477V28.3977H100.732C102.497 28.3977 104.178 27.1574 104.178 25.1728C104.178 23.1883 102.497 21.9479 100.732 21.9479ZM100.816 26.9093H98.5477V23.3537H100.816C101.993 23.3537 102.665 24.3459 102.665 25.0901C102.581 25.9997 101.909 26.9093 100.816 26.9093ZM110.48 25.4209C109.303 25.4209 108.127 25.917 107.707 26.992L109.135 27.5708C109.471 26.992 109.976 26.8266 110.564 26.8266C111.404 26.8266 112.16 27.3228 112.244 28.1497V28.2323C111.992 28.067 111.32 27.8189 110.648 27.8189C109.135 27.8189 107.623 28.6458 107.623 30.1342C107.623 31.5399 108.883 32.4495 110.228 32.4495C111.32 32.4495 111.824 31.9534 112.244 31.4572H112.328V32.2841H113.841V28.315C113.673 26.4959 112.244 25.4209 110.48 25.4209ZM110.312 31.1265C109.807 31.1265 109.051 30.8784 109.051 30.2169C109.051 29.39 109.976 29.1419 110.732 29.1419C111.404 29.1419 111.74 29.3073 112.16 29.4727C111.992 30.465 111.152 31.1265 110.312 31.1265ZM119.135 25.669L117.37 30.1342H117.286L115.437 25.669H113.757L116.53 31.9534L114.933 35.4263H116.53L120.815 25.669H119.135ZM105.018 32.2841H106.614V21.9479H105.018V32.2841Z" fill="white"/>
<path d="M33.6264 22.6803L36.6036 19.4905L25.0493 13.2526C24.9784 13.1817 24.8366 13.1817 24.624 13.1108L33.6264 22.6803Z" fill="white"/>
<path d="M37.8796 27.2877L42.0618 25.0194C42.558 24.7359 42.8415 24.3106 42.8415 23.7435C42.8415 23.1764 42.558 22.6802 42.0618 22.4675L37.8796 20.1992L34.548 23.7435L37.8796 27.2877Z" fill="white"/>
<path d="M23.2771 13.749C23.0644 13.9617 22.9935 14.2452 22.9935 14.5288V32.9589C22.9935 33.2425 23.0644 33.526 23.2771 33.8095L32.6339 23.7438L23.2771 13.749Z" fill="white"/>
<path d="M33.6264 24.8071L24.624 34.3766C24.7657 34.3766 24.9075 34.3057 25.0493 34.2349L36.6036 27.997L33.6264 24.8071Z" fill="white"/>
</svg>
