<svg width="217" height="24" viewBox="0 0 217 24" fill="none" xmlns="http://www.w3.org/2000/svg">
<path d="M2.85 11.93H13.68V14.51H2.85V11.93ZM3.15 23H0.15V2H14.97V4.61H3.15V23ZM18.773 23V7.1H21.653V23H18.773ZM20.213 4.04C19.653 4.04 19.183 3.86 18.803 3.5C18.443 3.14 18.263 2.7 18.263 2.18C18.263 1.64 18.443 1.19 18.803 0.829999C19.183 0.469999 19.653 0.289999 20.213 0.289999C20.773 0.289999 21.233 0.469999 21.593 0.829999C21.973 1.17 22.163 1.6 22.163 2.12C22.163 2.66 21.983 3.12 21.623 3.5C21.263 3.86 20.793 4.04 20.213 4.04ZM35.6419 6.95C36.9419 6.95 38.0819 7.2 39.0619 7.7C40.0619 8.2 40.8419 8.96 41.4019 9.98C41.9619 11 42.2419 12.29 42.2419 13.85V23H39.3619V14.18C39.3619 12.64 38.9819 11.48 38.2219 10.7C37.4819 9.92 36.4319 9.53 35.0719 9.53C34.0519 9.53 33.1619 9.73 32.4019 10.13C31.6419 10.53 31.0519 11.12 30.6319 11.9C30.2319 12.68 30.0319 13.65 30.0319 14.81V23H27.1519V7.1H29.9119V11.39L29.4619 10.25C29.9819 9.21 30.7819 8.4 31.8619 7.82C32.9419 7.24 34.2019 6.95 35.6419 6.95ZM54.1418 23.18C52.6018 23.18 51.2218 22.84 50.0018 22.16C48.8018 21.48 47.8518 20.53 47.1518 19.31C46.4518 18.09 46.1018 16.67 46.1018 15.05C46.1018 13.43 46.4518 12.02 47.1518 10.82C47.8518 9.6 48.8018 8.65 50.0018 7.97C51.2218 7.29 52.6018 6.95 54.1418 6.95C55.4818 6.95 56.6918 7.25 57.7718 7.85C58.8518 8.45 59.7118 9.35 60.3518 10.55C61.0118 11.75 61.3418 13.25 61.3418 15.05C61.3418 16.85 61.0218 18.35 60.3818 19.55C59.7618 20.75 58.9118 21.66 57.8318 22.28C56.7518 22.88 55.5218 23.18 54.1418 23.18ZM54.3818 20.66C55.3818 20.66 56.2818 20.43 57.0818 19.97C57.9018 19.51 58.5418 18.86 59.0018 18.02C59.4818 17.16 59.7218 16.17 59.7218 15.05C59.7218 13.91 59.4818 12.93 59.0018 12.11C58.5418 11.27 57.9018 10.62 57.0818 10.16C56.2818 9.7 55.3818 9.47 54.3818 9.47C53.3618 9.47 52.4518 9.7 51.6518 10.16C50.8518 10.62 50.2118 11.27 49.7318 12.11C49.2518 12.93 49.0118 13.91 49.0118 15.05C49.0118 16.17 49.2518 17.16 49.7318 18.02C50.2118 18.86 50.8518 19.51 51.6518 19.97C52.4518 20.43 53.3618 20.66 54.3818 20.66ZM59.8118 23V18.71L59.9918 15.02L59.6918 11.33V0.739999H62.5718V23H59.8118ZM68.441 23V2H76.631C78.471 2 80.041 2.29 81.341 2.87C82.641 3.45 83.641 4.29 84.341 5.39C85.041 6.49 85.391 7.8 85.391 9.32C85.391 10.84 85.041 12.15 84.341 13.25C83.641 14.33 82.641 15.16 81.341 15.74C80.041 16.32 78.471 16.61 76.631 16.61H70.091L71.441 15.23V23H68.441ZM82.481 23L77.141 15.38H80.351L85.751 23H82.481ZM71.441 15.53L70.091 14.06H76.541C78.461 14.06 79.911 13.65 80.891 12.83C81.891 11.99 82.391 10.82 82.391 9.32C82.391 7.82 81.891 6.66 80.891 5.84C79.911 5.02 78.461 4.61 76.541 4.61H70.091L71.441 3.11V15.53ZM96.8979 23.18C95.1979 23.18 93.6979 22.83 92.3979 22.13C91.1179 21.43 90.1179 20.47 89.3979 19.25C88.6979 18.03 88.3479 16.63 88.3479 15.05C88.3479 13.47 88.6879 12.07 89.3679 10.85C90.0679 9.63 91.0179 8.68 92.2179 8C93.4379 7.3 94.8079 6.95 96.3279 6.95C97.8679 6.95 99.2279 7.29 100.408 7.97C101.588 8.65 102.508 9.61 103.168 10.85C103.848 12.07 104.188 13.5 104.188 15.14C104.188 15.26 104.178 15.4 104.158 15.56C104.158 15.72 104.148 15.87 104.128 16.01H90.5979V13.94H102.628L101.458 14.66C101.478 13.64 101.268 12.73 100.828 11.93C100.388 11.13 99.7779 10.51 98.9979 10.07C98.2379 9.61 97.3479 9.38 96.3279 9.38C95.3279 9.38 94.4379 9.61 93.6579 10.07C92.8779 10.51 92.2679 11.14 91.8279 11.96C91.3879 12.76 91.1679 13.68 91.1679 14.72V15.2C91.1679 16.26 91.4079 17.21 91.8879 18.05C92.3879 18.87 93.0779 19.51 93.9579 19.97C94.8379 20.43 95.8479 20.66 96.9879 20.66C97.9279 20.66 98.7779 20.5 99.5379 20.18C100.318 19.86 100.998 19.38 101.578 18.74L103.168 20.6C102.448 21.44 101.548 22.08 100.468 22.52C99.4079 22.96 98.2179 23.18 96.8979 23.18ZM116.677 6.95C117.977 6.95 119.117 7.2 120.097 7.7C121.097 8.2 121.877 8.96 122.437 9.98C122.997 11 123.277 12.29 123.277 13.85V23H120.397V14.18C120.397 12.64 120.017 11.48 119.257 10.7C118.517 9.92 117.467 9.53 116.107 9.53C115.087 9.53 114.197 9.73 113.437 10.13C112.677 10.53 112.087 11.12 111.667 11.9C111.267 12.68 111.067 13.65 111.067 14.81V23H108.187V7.1H110.947V11.39L110.497 10.25C111.017 9.21 111.817 8.4 112.897 7.82C113.977 7.24 115.237 6.95 116.677 6.95ZM134.067 23.18C132.467 23.18 131.227 22.75 130.347 21.89C129.467 21.03 129.027 19.8 129.027 18.2V3.62H131.907V18.08C131.907 18.94 132.117 19.6 132.537 20.06C132.977 20.52 133.597 20.75 134.397 20.75C135.297 20.75 136.047 20.5 136.647 20L137.547 22.07C137.107 22.45 136.577 22.73 135.957 22.91C135.357 23.09 134.727 23.18 134.067 23.18ZM126.327 9.47V7.1H136.467V9.47H126.327ZM141.449 23V2H150.299C152.539 2 154.509 2.44 156.209 3.32C157.929 4.2 159.259 5.43 160.199 7.01C161.159 8.59 161.639 10.42 161.639 12.5C161.639 14.58 161.159 16.41 160.199 17.99C159.259 19.57 157.929 20.8 156.209 21.68C154.509 22.56 152.539 23 150.299 23H141.449ZM144.449 20.39H150.119C151.859 20.39 153.359 20.06 154.619 19.4C155.899 18.74 156.889 17.82 157.589 16.64C158.289 15.44 158.639 14.06 158.639 12.5C158.639 10.92 158.289 9.54 157.589 8.36C156.889 7.18 155.899 6.26 154.619 5.6C153.359 4.94 151.859 4.61 150.119 4.61H144.449V20.39ZM165.814 23V7.1H168.574V11.42L168.304 10.34C168.744 9.24 169.484 8.4 170.524 7.82C171.564 7.24 172.844 6.95 174.364 6.95V9.74C174.244 9.72 174.124 9.71 174.004 9.71C173.904 9.71 173.804 9.71 173.704 9.71C172.164 9.71 170.944 10.17 170.044 11.09C169.144 12.01 168.694 13.34 168.694 15.08V23H165.814ZM177.914 23V7.1H180.794V23H177.914ZM179.354 4.04C178.794 4.04 178.324 3.86 177.944 3.5C177.584 3.14 177.404 2.7 177.404 2.18C177.404 1.64 177.584 1.19 177.944 0.829999C178.324 0.469999 178.794 0.289999 179.354 0.289999C179.914 0.289999 180.374 0.469999 180.734 0.829999C181.114 1.17 181.304 1.6 181.304 2.12C181.304 2.66 181.124 3.12 180.764 3.5C180.404 3.86 179.934 4.04 179.354 4.04ZM190.463 23L183.502 7.1H186.503L192.683 21.5H191.243L197.543 7.1H200.363L193.403 23H190.463ZM209.691 23.18C207.991 23.18 206.491 22.83 205.191 22.13C203.911 21.43 202.911 20.47 202.191 19.25C201.491 18.03 201.141 16.63 201.141 15.05C201.141 13.47 201.481 12.07 202.161 10.85C202.861 9.63 203.811 8.68 205.011 8C206.231 7.3 207.601 6.95 209.121 6.95C210.661 6.95 212.021 7.29 213.201 7.97C214.381 8.65 215.301 9.61 215.961 10.85C216.641 12.07 216.981 13.5 216.981 15.14C216.981 15.26 216.971 15.4 216.951 15.56C216.951 15.72 216.941 15.87 216.921 16.01H203.391V13.94H215.421L214.251 14.66C214.271 13.64 214.061 12.73 213.621 11.93C213.181 11.13 212.571 10.51 211.791 10.07C211.031 9.61 210.141 9.38 209.121 9.38C208.121 9.38 207.231 9.61 206.451 10.07C205.671 10.51 205.061 11.14 204.621 11.96C204.181 12.76 203.961 13.68 203.961 14.72V15.2C203.961 16.26 204.201 17.21 204.681 18.05C205.181 18.87 205.871 19.51 206.751 19.97C207.631 20.43 208.641 20.66 209.781 20.66C210.721 20.66 211.571 20.5 212.331 20.18C213.111 19.86 213.791 19.38 214.371 18.74L215.961 20.6C215.241 21.44 214.341 22.08 213.261 22.52C212.201 22.96 211.011 23.18 209.691 23.18Z" fill="black"/>
</svg>
