<svg width="144" height="48" viewBox="0 0 144 48" fill="none" xmlns="http://www.w3.org/2000/svg">
<rect x="0.5" y="0.5" width="143" height="47" rx="4.5" stroke="white" stroke-opacity="0.5"/>
<path d="M40.7564 22.9664C40.732 20.2531 42.9786 18.933 43.0814 18.8716C41.809 17.017 39.8369 16.7636 39.1438 16.7434C37.4875 16.5691 35.8808 17.7342 35.037 17.7342C34.1764 17.7342 32.8771 16.7602 31.4767 16.7888C29.6747 16.8166 27.9888 17.8597 27.0642 19.4794C25.1561 22.782 26.5792 27.6353 28.4073 30.3048C29.3218 31.613 30.3904 33.072 31.7891 33.0206C33.1575 32.965 33.6686 32.1493 35.32 32.1493C36.9561 32.1493 37.4361 33.0206 38.8626 32.9878C40.3312 32.965 41.2558 31.6745 42.1382 30.3553C43.1951 28.8576 43.6195 27.381 43.6363 27.3053C43.6026 27.2935 40.785 26.2176 40.7564 22.9664ZM38.0618 14.9873C38.7977 14.0671 39.3013 12.8153 39.1615 11.5449C38.0963 11.5921 36.7641 12.2815 35.997 13.1815C35.3183 13.9745 34.712 15.2743 34.8686 16.4967C36.0652 16.5859 37.2938 15.8931 38.0618 14.9873Z" fill="white"/>
<path d="M60.5761 32.8331H58.6638L57.6163 29.5423H53.9751L52.9772 32.8331H51.1154L54.7237 21.6297H56.9519L60.5761 32.8331ZM57.3005 28.1617L56.3531 25.2362C56.2529 24.9374 56.0643 24.2336 55.7881 23.1257H55.7544C55.6433 23.6022 55.4656 24.306 55.2222 25.2362L54.2909 28.1617H57.3005ZM69.8373 28.6945C69.8373 30.0685 69.4643 31.1544 68.7173 31.9517C68.0487 32.6614 67.2176 33.0158 66.2265 33.0158C65.1562 33.0158 64.3865 32.6344 63.9192 31.87V36.1088H62.1239V27.4099C62.1239 26.547 62.1011 25.6622 62.0574 24.7547H63.6363L63.7365 26.0351H63.7701C64.3689 25.0704 65.2775 24.588 66.4968 24.588C67.45 24.588 68.2458 24.9643 68.8824 25.7178C69.5182 26.4729 69.8373 27.4646 69.8373 28.6945ZM68.0083 28.7602C68.0083 27.9739 67.8315 27.3257 67.4761 26.8147C67.0879 26.2835 66.5667 26.0175 65.9132 26.0175C65.4703 26.0175 65.0678 26.1656 64.7082 26.4577C64.3478 26.7524 64.112 27.1371 64.0017 27.6136C63.9525 27.7918 63.9245 27.9752 63.9184 28.16V29.5078C63.9184 30.0946 64.0986 30.5904 64.459 30.9962C64.8194 31.4003 65.2876 31.6032 65.8635 31.6032C66.5397 31.6032 67.066 31.3413 67.4424 30.8219C67.8197 30.3008 68.0083 29.6139 68.0083 28.7602ZM79.1313 28.6945C79.1313 30.0685 78.7583 31.1544 78.0114 31.9517C77.3419 32.6614 76.5116 33.0158 75.5196 33.0158C74.4494 33.0158 73.6797 32.6344 73.2124 31.87V36.1088H71.417V27.4099C71.417 26.547 71.3943 25.6622 71.3505 24.7547H72.9294L73.0296 26.0351H73.0633C73.6612 25.0704 74.5698 24.588 75.79 24.588C76.7423 24.588 77.5381 24.9643 78.1764 25.7178C78.8113 26.4729 79.1313 27.4646 79.1313 28.6945ZM77.3015 28.7602C77.3015 27.9739 77.1238 27.3257 76.7684 26.8147C76.3802 26.2835 75.8607 26.0175 75.2072 26.0175C74.7643 26.0175 74.3618 26.1656 74.0005 26.4577C73.6401 26.7524 73.4052 27.1371 73.2949 27.6136C73.2401 27.8359 73.2107 28.0169 73.2107 28.16V29.5078C73.2107 30.0946 73.3917 30.5904 73.7504 30.9962C74.1108 31.3994 74.579 31.6032 75.1567 31.6032C75.8337 31.6032 76.36 31.3413 76.7356 30.8219C77.1129 30.3008 77.3015 29.6139 77.3015 28.7602ZM89.5225 29.6905C89.5225 30.6443 89.1891 31.4196 88.5264 32.0182C87.7971 32.6715 86.7791 32.9989 85.4738 32.9989C84.268 32.9989 83.3013 32.7666 82.572 32.301L82.9872 30.8051C83.7745 31.2715 84.6393 31.5038 85.5808 31.5038C86.2578 31.5038 86.7841 31.3506 87.1597 31.0467C87.5361 30.7419 87.7264 30.3345 87.7264 29.826C87.7264 29.3706 87.5689 28.9892 87.2599 28.6786C86.9491 28.3688 86.4355 28.08 85.7138 27.8148C83.7518 27.0832 82.7699 26.0132 82.7699 24.6057C82.7699 23.6864 83.1169 22.9337 83.809 22.3453C84.5012 21.7577 85.4191 21.4639 86.561 21.4639C87.5807 21.4639 88.4304 21.6415 89.1049 21.9959L88.6544 23.4591C88.0194 23.1156 87.3028 22.9438 86.5012 22.9438C85.8679 22.9438 85.3711 23.0996 85.0157 23.4094C84.7168 23.6864 84.5652 24.0239 84.5652 24.4247C84.5652 24.8666 84.7379 25.2337 85.0814 25.5216C85.3795 25.7868 85.9235 26.0755 86.71 26.3853C87.675 26.7743 88.384 27.2272 88.8379 27.7475C89.2952 28.2677 89.5225 28.9168 89.5225 29.6905ZM95.4735 26.1016H93.4946V30.0238C93.4946 31.0214 93.8432 31.519 94.5422 31.519C94.863 31.519 95.1291 31.492 95.3396 31.4356L95.3893 32.7986C95.0356 32.9308 94.5699 32.9973 93.9931 32.9973C93.2841 32.9973 92.73 32.7809 92.33 32.3482C91.9317 31.9155 91.7313 31.1906 91.7313 30.1703V26.0983H90.5524V24.7513H91.7313V23.2722L93.4946 22.7401V24.7513H95.4735V26.1016ZM104.384 28.7274C104.384 29.9691 104.029 30.9886 103.32 31.7858C102.578 32.6066 101.591 33.0158 100.361 33.0158C99.1736 33.0158 98.2296 32.6226 97.5256 31.8372C96.8217 31.0501 96.4697 30.0584 96.4697 28.8621C96.4697 27.6102 96.8334 26.5849 97.5585 25.7876C98.2852 24.9896 99.2637 24.5905 100.494 24.5905C101.68 24.5905 102.632 24.9845 103.353 25.7708C104.042 26.5335 104.384 27.5185 104.384 28.7274ZM102.523 28.7686C102.523 28.0286 102.363 27.3939 102.043 26.8627C101.666 26.2212 101.127 25.9004 100.429 25.9004C99.71 25.9004 99.1584 26.2212 98.7829 26.8627C98.4612 27.3939 98.3012 28.0396 98.3012 28.8023C98.3012 29.5431 98.4612 30.1796 98.7829 30.7091C99.1711 31.3506 99.7125 31.6713 100.414 31.6713C101.1 31.6713 101.638 31.3439 102.027 30.6931C102.357 30.1493 102.523 29.5103 102.523 28.7686ZM110.222 26.3331C110.036 26.2994 109.846 26.2828 109.657 26.2835C109.025 26.2835 108.537 26.5209 108.193 26.9991C107.895 27.42 107.745 27.952 107.745 28.5944V32.8331H105.95V27.2988C105.951 26.4507 105.934 25.6028 105.898 24.7555H107.461L107.527 26.3012H107.577C107.767 25.7699 108.065 25.3414 108.474 25.0207C108.849 24.7404 109.304 24.5887 109.772 24.588C109.938 24.588 110.088 24.5998 110.221 24.6208L110.222 26.3331ZM118.252 28.4117C118.256 28.6845 118.234 28.9572 118.186 29.2258H112.8C112.82 30.0238 113.081 30.635 113.582 31.0559C114.035 31.4314 114.622 31.62 115.343 31.62C116.141 31.62 116.868 31.4937 117.522 31.2386L117.804 32.4837C117.039 32.8171 116.136 32.983 115.095 32.983C113.842 32.983 112.858 32.6142 112.142 31.8784C111.428 31.1418 111.07 30.1518 111.07 28.9117C111.07 27.6944 111.403 26.68 112.069 25.871C112.766 25.0072 113.709 24.5754 114.894 24.5754C116.059 24.5754 116.941 25.0072 117.539 25.871C118.013 26.5554 118.252 27.404 118.252 28.4117ZM116.54 27.9461C116.552 27.4132 116.434 26.9544 116.191 26.5663C115.88 26.0663 115.402 25.8171 114.761 25.8171C114.174 25.8171 113.696 26.0604 113.332 26.5487C113.033 26.9368 112.856 27.4031 112.801 27.9445L116.54 27.9461Z" fill="white"/>
<path d="M53.4576 17.6684C52.9583 17.6684 52.5263 17.644 52.1667 17.6028V12.1863C52.6696 12.1086 53.1778 12.0703 53.6867 12.0718C55.7456 12.0718 56.6938 13.0845 56.6938 14.7354C56.6938 16.6397 55.5738 17.6684 53.4576 17.6684ZM53.7591 12.7663C53.4812 12.7663 53.2446 12.7831 53.0484 12.8235V16.9411C53.1545 16.9579 53.3583 16.9655 53.6446 16.9655C54.9936 16.9655 55.7616 16.1977 55.7616 14.7598C55.7616 13.4777 55.0669 12.7663 53.7591 12.7663ZM59.6486 17.7097C58.4882 17.7097 57.7362 16.8434 57.7362 15.6673C57.7362 14.4416 58.5042 13.5677 59.7143 13.5677C60.8578 13.5677 61.6266 14.3928 61.6266 15.6025C61.6266 16.8434 60.8342 17.7097 59.6486 17.7097ZM59.6823 14.2126C59.0448 14.2126 58.6364 14.8086 58.6364 15.6421C58.6364 16.4595 59.0532 17.0555 59.6739 17.0555C60.2945 17.0555 60.7113 16.4183 60.7113 15.6252C60.7113 14.8171 60.3029 14.2126 59.6823 14.2126ZM68.2437 13.6494L67.0016 17.6196H66.1924L65.6779 15.8955C65.5499 15.4737 65.4434 15.0458 65.3587 14.6133H65.3419C65.277 15.046 65.1541 15.4796 65.0236 15.8955L64.4762 17.6196H63.6586L62.4898 13.6494H63.3967L63.8464 15.5368C63.9525 15.9864 64.0417 16.4107 64.1158 16.8114H64.1327C64.1975 16.4772 64.3036 16.0596 64.4594 15.5453L65.0236 13.6503H65.7427L66.2825 15.5049C66.413 15.9544 66.5191 16.3955 66.6016 16.8123H66.6252C66.6825 16.404 66.7726 15.9704 66.8947 15.5049L67.3772 13.6503L68.2437 13.6494ZM72.8161 17.6196H71.9337V15.3399C71.9337 14.6377 71.6642 14.2858 71.1328 14.2858C70.6099 14.2858 70.2503 14.7354 70.2503 15.2582V17.6196H69.3679V14.7842C69.3679 14.4332 69.3594 14.0569 69.335 13.6486H70.1114L70.1527 14.2614H70.1771C70.4146 13.8371 70.8962 13.5677 71.436 13.5677C72.2696 13.5677 72.817 14.205 72.817 15.2422L72.8161 17.6196ZM75.2498 17.6196H74.3664V11.8276H75.2498V17.6196ZM78.4673 17.7097C77.3078 17.7097 76.555 16.8434 76.555 15.6673C76.555 14.4416 77.3229 13.5677 78.5322 13.5677C79.6765 13.5677 80.4445 14.3928 80.4445 15.6025C80.4454 16.8434 79.6521 17.7097 78.4673 17.7097ZM78.5002 14.2126C77.8627 14.2126 77.4543 14.8086 77.4543 15.6421C77.4543 16.4595 77.872 17.0555 78.4909 17.0555C79.1124 17.0555 79.5283 16.4183 79.5283 15.6252C79.5292 14.8171 79.1216 14.2126 78.5002 14.2126ZM83.924 17.6196L83.86 17.1625H83.8364C83.5669 17.5304 83.1737 17.7097 82.6752 17.7097C81.9636 17.7097 81.4584 17.2113 81.4584 16.5412C81.4584 15.5613 82.308 15.0545 83.7792 15.0545V14.9812C83.7792 14.4584 83.5021 14.1966 82.9548 14.1966C82.5632 14.1966 82.2196 14.2951 81.9173 14.4913L81.738 13.9112C82.1051 13.6822 82.5632 13.5677 83.1013 13.5677C84.1387 13.5677 84.6625 14.115 84.6625 15.2102V16.6725C84.6625 17.0732 84.6802 17.3839 84.7197 17.6204L83.924 17.6196ZM83.8027 15.6421C82.8226 15.6421 82.3308 15.8795 82.3308 16.4427C82.3308 16.8594 82.5842 17.0631 82.9362 17.0631C83.3851 17.0631 83.8027 16.7205 83.8027 16.2549V15.6421ZM88.9478 17.6196L88.9066 16.9823H88.8821C88.6287 17.4638 88.2026 17.7097 87.6072 17.7097C86.6498 17.7097 85.9408 16.8678 85.9408 15.6833C85.9408 14.4416 86.6759 13.5669 87.6796 13.5669C88.211 13.5669 88.5874 13.7462 88.7996 14.1065H88.8173V11.8276H89.7006V16.5496C89.7006 16.9335 89.7099 17.293 89.7335 17.6196H88.9478ZM88.8173 15.2834C88.8173 14.7278 88.4493 14.2539 87.8876 14.2539C87.2333 14.2539 86.8334 14.8339 86.8334 15.6505C86.8334 16.4511 87.2485 16.9991 87.87 16.9991C88.4249 16.9991 88.8173 16.5168 88.8173 15.9451V15.2834ZM95.3013 17.7097C94.1417 17.7097 93.3898 16.8434 93.3898 15.6673C93.3898 14.4416 94.1577 13.5677 95.367 13.5677C96.5114 13.5677 97.2793 14.3928 97.2793 15.6025C97.2802 16.8434 96.4878 17.7097 95.3013 17.7097ZM95.3341 14.2126C94.6975 14.2126 94.2891 14.8086 94.2891 15.6421C94.2891 16.4595 94.7059 17.0555 95.3257 17.0555C95.9472 17.0555 96.3631 16.4183 96.3631 15.6252C96.3648 14.8171 95.9564 14.2126 95.3341 14.2126ZM102.025 17.6196H101.142V15.3399C101.142 14.6377 100.872 14.2858 100.341 14.2858C99.8182 14.2858 99.4595 14.7354 99.4595 15.2582V17.6196H98.5761V14.7842C98.5761 14.4332 98.5677 14.0569 98.5433 13.6486H99.3197L99.3609 14.2614H99.3854C99.622 13.8371 100.104 13.5669 100.643 13.5669C101.477 13.5669 102.025 14.2042 102.025 15.2414V17.6196ZM107.963 14.3111H106.992V16.239C106.992 16.7298 107.162 16.9747 107.506 16.9747C107.661 16.9747 107.792 16.9579 107.897 16.9335L107.921 17.6036C107.751 17.6693 107.521 17.7021 107.237 17.7021C106.541 17.7021 106.125 17.3182 106.125 16.313V14.3111H105.546V13.6494H106.125V12.922L106.992 12.6602V13.6486H107.963V14.3111ZM112.635 17.6196H111.753V15.3567C111.753 14.6462 111.484 14.2867 110.952 14.2867C110.495 14.2867 110.069 14.5973 110.069 15.2262V17.6196H109.187V11.8276H110.069V14.2126H110.086C110.364 13.7799 110.767 13.5669 111.281 13.5669C112.121 13.5669 112.635 14.2202 112.635 15.2582V17.6196ZM117.421 15.8466H114.773C114.789 16.5984 115.287 17.0227 116.024 17.0227C116.416 17.0227 116.776 16.9571 117.094 16.835L117.231 17.4479C116.856 17.6112 116.414 17.6928 115.899 17.6928C114.657 17.6928 113.922 16.9082 113.922 15.6917C113.922 14.4744 114.675 13.5593 115.8 13.5593C116.815 13.5593 117.451 14.3111 117.451 15.4468C117.457 15.5808 117.447 15.715 117.421 15.8466ZM116.612 15.2178C116.612 14.6049 116.303 14.1722 115.738 14.1722C115.232 14.1722 114.831 14.6133 114.773 15.2178H116.612Z" fill="white"/>
</svg>
